{"glyphs":{"\u0000":{"ha":0,"x_min":0,"x_max":0,"o":""},"\r":{"ha":347,"x_min":0,"x_max":0,"o":""}," ":{"ha":333,"x_min":0,"x_max":0,"o":""},".":{"ha":264,"x_min":8,"x_max":249,"o":"m 11 158 q 8 172 8 158 q 47 249 8 217 q 143 282 85 282 q 219 258 190 282 q 249 192 249 233 q 238 172 249 172 q 212 185 222 172 q 194 197 201 197 q 185 188 189 197 q 175 167 181 179 q 163 147 169 156 q 146 138 156 138 q 128 147 136 138 q 111 168 119 157 q 93 189 103 179 q 71 199 83 199 q 51 192 61 199 q 35 178 42 186 q 22 165 28 171 q 11 158 15 158 z "},"A":{"ha":744,"x_min":24,"x_max":660,"o":"m 571 924 q 617 879 597 910 q 648 819 638 849 q 659 766 658 789 q 649 743 660 743 q 633 758 644 743 q 610 789 622 772 q 585 820 597 806 q 564 835 572 835 q 548 831 554 835 q 536 821 542 826 q 524 811 531 815 q 510 807 518 807 q 472 821 490 807 q 435 851 454 835 q 398 882 417 868 q 357 896 379 896 q 331 877 340 896 q 310 836 321 858 q 283 795 300 814 q 238 776 267 776 q 202 784 218 776 q 167 792 186 792 q 120 772 139 792 q 88 728 101 751 q 64 684 75 704 q 40 664 53 664 q 24 721 24 664 q 45 846 24 792 q 101 914 67 900 q 151 939 133 926 q 178 962 168 951 q 197 981 189 972 q 220 997 206 990 q 260 1006 235 1003 q 332 1010 286 1010 q 371 1015 356 1010 q 397 1026 386 1021 q 418 1037 408 1032 q 439 1042 428 1042 q 465 1029 454 1042 q 490 999 476 1017 q 523 960 504 981 q 571 924 542 939 m 296 400 q 299 429 296 417 q 304 442 301 442 q 310 435 307 442 q 317 422 313 429 q 328 409 321 415 q 344 403 335 403 q 363 415 358 403 q 369 442 368 428 q 371 469 371 457 q 375 482 371 482 q 383 472 378 482 q 392 447 388 461 q 399 415 396 432 q 401 385 401 399 q 397 360 401 369 q 386 350 393 350 q 373 356 379 350 q 356 361 367 361 q 335 355 344 361 q 318 349 326 349 q 301 363 307 349 q 296 400 296 376 z "},"B":{"ha":794,"x_min":43,"x_max":742,"o":"m 251 369 q 258 413 251 393 q 271 432 264 432 q 277 424 275 432 q 281 406 279 415 q 287 387 283 396 q 299 375 290 378 q 319 385 311 372 q 346 404 328 397 q 371 401 361 410 q 381 376 381 393 q 357 346 381 350 q 342 339 347 344 q 333 328 336 333 q 328 318 331 322 q 319 314 325 314 q 309 320 313 314 q 302 335 306 326 q 296 349 299 343 q 288 356 293 356 q 281 351 283 356 q 278 340 279 346 q 274 328 276 333 q 268 322 272 322 q 256 336 261 322 q 251 369 251 350 m 463 897 q 436 886 446 897 q 417 861 426 875 q 394 836 408 847 q 354 825 381 825 q 311 835 329 825 q 278 858 293 846 q 251 880 264 869 q 225 890 239 890 q 203 878 211 890 q 186 849 194 865 q 166 818 178 833 q 131 797 154 803 q 87 778 107 792 q 54 764 67 764 q 43 793 43 764 q 53 861 43 829 q 83 917 64 893 q 129 957 103 942 q 186 976 156 972 q 235 992 215 981 q 274 1017 254 1004 q 319 1040 294 1029 q 385 1050 344 1050 q 481 1033 435 1050 q 562 989 526 1017 q 618 925 597 961 q 639 849 639 889 q 614 800 639 800 q 582 815 600 800 q 544 849 564 831 q 503 882 524 867 q 463 897 482 897 m 244 660 q 248 686 244 675 q 256 697 251 697 q 260 690 258 697 q 264 674 261 683 q 272 658 267 665 q 289 651 278 651 q 307 660 301 651 q 315 681 313 669 q 319 702 317 693 q 325 711 321 711 q 335 692 335 711 q 330 667 335 681 q 318 647 325 654 q 308 631 311 640 q 303 613 306 621 q 298 598 301 604 q 286 592 294 592 q 279 594 281 592 q 278 601 278 597 q 276 609 278 604 q 269 618 275 614 q 261 624 265 621 q 253 631 257 626 q 247 641 250 635 q 244 660 244 647 m 632 571 q 638 553 632 567 q 656 524 644 539 q 684 498 668 510 q 721 486 700 486 q 735 490 728 486 q 742 511 742 494 q 717 559 742 540 q 656 578 693 578 q 632 571 632 578 z "},"C":{"ha":725,"x_min":17,"x_max":725,"o":"m 318 1042 q 375 1034 346 1042 q 435 1018 404 1026 q 497 1004 465 1010 q 558 1003 528 999 q 649 985 614 1011 q 703 922 685 958 q 723 851 721 886 q 713 807 725 817 q 685 817 701 799 q 649 860 669 835 q 602 906 628 885 q 547 925 576 928 q 516 913 528 924 q 493 888 504 901 q 467 863 482 875 q 429 846 453 850 q 385 847 404 840 q 349 865 365 854 q 318 884 332 875 q 290 893 304 893 q 259 869 268 893 q 240 816 250 844 q 212 763 229 788 q 156 739 194 739 q 124 734 138 739 q 98 723 110 729 q 76 712 86 717 q 57 707 65 707 q 28 729 39 707 q 17 783 17 751 q 83 892 17 854 q 141 935 115 910 q 193 985 167 961 q 249 1025 219 1008 q 318 1042 279 1042 m 628 479 q 608 478 622 479 q 576 476 593 476 q 540 474 558 475 q 510 472 522 472 q 435 487 465 474 q 390 500 406 500 q 371 471 371 500 q 385 419 371 443 q 419 394 400 394 q 436 400 429 394 q 451 413 443 406 q 470 426 460 421 q 496 432 481 432 q 535 424 515 432 q 576 404 556 415 q 617 384 597 393 q 654 372 636 375 q 677 376 669 369 q 685 406 685 383 q 669 458 685 438 q 628 479 653 479 z "},"D":{"ha":725,"x_min":8,"x_max":682,"o":"m 8 789 q 24 876 8 835 q 65 947 39 917 q 126 996 92 978 q 199 1014 161 1014 q 276 1003 235 1014 q 365 992 317 992 q 410 995 392 992 q 454 999 429 999 q 542 983 500 999 q 615 940 583 967 q 664 876 646 913 q 682 801 682 840 q 672 752 682 771 q 644 733 661 733 q 613 747 629 733 q 578 778 596 761 q 540 808 560 794 q 497 822 519 822 q 476 817 485 822 q 460 806 468 813 q 440 794 451 800 q 413 789 429 789 q 369 801 386 789 q 337 829 351 814 q 308 858 322 844 q 274 871 294 871 q 249 861 256 871 q 236 839 243 851 q 214 815 229 826 q 164 800 199 804 q 109 785 131 796 q 74 761 88 774 q 50 739 60 749 q 32 729 40 729 q 8 789 8 729 m 343 413 q 351 406 347 413 q 354 392 354 400 q 349 376 354 381 q 336 363 343 372 q 329 353 335 360 q 317 340 324 347 q 302 328 310 333 q 286 324 294 324 q 263 340 271 324 q 254 379 254 356 q 263 400 254 400 q 278 392 269 400 q 299 385 288 385 q 324 399 314 385 q 343 413 335 413 z "},"E":{"ha":635,"x_min":40,"x_max":624,"o":"m 365 418 q 394 412 381 418 q 431 406 408 406 q 476 412 451 406 q 529 418 500 418 q 578 408 560 418 q 607 385 597 399 q 620 357 617 372 q 624 331 624 342 q 607 288 624 301 q 561 275 590 275 q 516 286 532 275 q 492 310 500 297 q 478 335 483 324 q 463 346 472 346 q 450 340 456 346 q 440 326 444 333 q 429 312 435 318 q 417 306 424 306 q 406 312 410 306 q 400 328 403 318 q 393 347 397 338 q 382 365 389 357 q 356 383 371 378 q 340 400 340 388 q 365 418 340 418 m 374 1033 q 423 1025 403 1033 q 460 1008 443 1017 q 492 990 476 999 q 529 982 508 982 q 585 955 567 982 q 609 895 603 928 q 612 835 615 863 q 604 808 608 808 q 594 818 601 808 q 574 839 586 828 q 549 860 563 850 q 518 869 535 869 q 493 864 506 869 q 467 852 481 858 q 439 840 454 846 q 404 835 424 835 q 360 847 376 835 q 332 874 344 860 q 306 901 319 889 q 268 913 292 913 q 203 888 235 913 q 144 835 171 864 q 97 783 118 807 q 63 758 75 758 q 47 772 53 758 q 40 810 40 786 q 49 865 40 838 q 73 915 58 892 q 106 951 88 938 q 143 965 124 965 q 170 961 156 965 q 200 957 185 957 q 239 969 222 957 q 274 995 256 981 q 316 1022 293 1010 q 374 1033 339 1033 m 407 564 q 395 573 399 564 q 392 592 392 582 q 395 612 392 603 q 406 621 399 621 q 424 611 414 621 q 461 601 435 601 q 503 583 493 601 q 508 565 507 575 q 504 532 508 542 q 493 522 500 522 q 483 530 488 522 q 474 547 479 538 q 462 563 469 556 q 440 571 454 571 q 422 567 429 571 q 407 564 414 564 z "},"F":{"ha":629,"x_min":19,"x_max":625,"o":"m 238 885 q 183 857 207 885 q 138 796 158 829 q 97 735 117 763 q 54 708 78 708 q 19 779 19 708 q 36 872 19 828 q 82 950 53 917 q 149 1003 111 983 q 229 1022 188 1022 q 281 1017 251 1022 q 346 1007 311 1013 q 416 997 381 1001 q 485 992 451 992 q 589 969 553 992 q 625 903 625 946 q 589 860 625 860 q 551 867 572 860 q 509 883 531 874 q 469 899 488 892 q 438 906 450 906 q 410 894 422 906 q 385 870 397 883 q 360 846 374 857 q 328 835 347 835 q 303 842 313 835 q 284 860 293 850 q 265 877 275 869 q 238 885 254 885 m 390 582 q 400 575 394 582 q 419 568 406 568 q 447 578 435 568 q 479 588 460 588 q 514 576 499 588 q 529 553 529 565 q 510 538 529 538 q 485 544 497 538 q 463 550 474 550 q 440 542 450 550 q 415 535 431 535 q 394 542 401 535 q 385 558 388 550 q 385 574 383 567 q 390 582 386 582 z "},"G":{"ha":714,"x_min":71,"x_max":701,"o":"m 128 715 q 86 740 101 715 q 71 807 71 764 q 83 881 71 844 q 115 947 94 918 q 160 994 135 976 q 210 1013 185 1013 q 276 1001 233 1013 q 369 990 319 990 q 433 999 408 990 q 476 1016 457 1007 q 515 1033 496 1025 q 561 1042 533 1042 q 663 995 624 1042 q 701 874 701 949 q 675 818 701 818 q 631 832 658 818 q 573 863 603 846 q 515 893 543 879 q 471 907 488 907 q 441 891 453 907 q 415 856 429 875 q 381 822 401 838 q 328 806 361 806 q 289 810 307 806 q 251 815 271 815 q 205 800 219 815 q 181 766 190 785 q 160 731 171 747 q 128 715 150 715 m 618 485 q 669 456 647 485 q 692 392 692 428 q 683 358 692 371 q 663 344 675 344 q 635 352 653 344 q 599 369 618 360 q 559 387 579 379 q 524 394 539 394 q 501 401 510 394 q 485 416 493 408 q 467 431 476 424 q 442 438 458 438 q 406 427 419 438 q 382 417 393 417 q 376 424 376 417 q 399 463 376 442 q 467 483 422 483 q 508 477 492 483 q 544 471 525 471 q 583 478 565 471 q 618 485 601 485 m 354 351 q 332 340 332 351 q 340 332 332 335 q 350 326 347 329 q 352 317 353 325 q 351 302 351 310 q 353 288 351 294 q 363 282 356 282 q 381 298 375 282 q 386 324 386 314 q 379 343 386 335 q 354 351 372 351 z "},"H":{"ha":824,"x_min":14,"x_max":769,"o":"m 468 803 q 452 819 458 803 q 446 864 446 836 q 485 967 446 928 q 593 1007 524 1007 q 660 997 628 1007 q 716 971 692 988 q 755 933 740 954 q 769 889 769 911 q 761 866 769 872 q 735 860 753 860 q 696 865 717 860 q 655 874 675 869 q 616 884 635 879 q 583 889 597 889 q 542 876 560 889 q 511 846 525 863 q 488 816 497 829 q 468 803 478 803 m 407 911 q 399 869 407 885 q 379 853 390 853 q 363 861 371 853 q 349 878 356 869 q 334 896 342 888 q 317 904 326 904 q 301 894 306 904 q 294 874 297 885 q 284 853 290 863 q 263 843 278 843 q 239 849 251 843 q 214 862 226 854 q 188 875 201 869 q 160 881 175 881 q 115 861 133 881 q 83 817 97 842 q 59 774 69 793 q 36 754 49 754 q 14 808 14 754 q 24 873 14 843 q 50 925 33 903 q 90 960 67 947 q 139 972 113 972 q 185 983 165 972 q 222 1007 204 994 q 257 1031 239 1019 q 299 1042 275 1042 q 340 1031 321 1042 q 374 1003 360 1021 q 398 961 389 985 q 407 911 407 938 m 404 732 q 413 719 411 732 q 417 690 415 706 q 420 660 418 674 q 431 647 422 647 q 442 657 438 647 q 449 678 446 667 q 456 699 453 689 q 464 708 460 708 q 474 690 471 708 q 478 639 478 671 q 469 560 478 590 q 446 529 461 529 q 428 567 428 529 q 419 598 428 589 q 401 613 411 607 q 383 624 392 618 q 375 647 375 631 q 377 670 375 656 q 383 698 379 685 q 393 722 388 711 q 404 732 399 732 z "},"I":{"ha":417,"x_min":18,"x_max":396,"o":"m 18 782 q 32 876 18 833 q 71 950 46 919 q 131 997 96 981 q 207 1014 165 1014 q 297 990 260 1014 q 349 932 333 965 q 364 907 356 915 q 379 890 372 899 q 391 871 386 882 q 396 838 396 860 q 379 800 396 800 q 348 820 365 800 q 313 864 331 840 q 276 908 294 888 q 243 928 258 928 q 222 910 229 928 q 208 869 214 892 q 192 829 201 847 q 165 811 183 811 q 142 819 151 811 q 115 828 132 828 q 84 813 97 828 q 62 782 71 799 q 46 751 53 765 q 31 736 39 736 q 18 782 18 736 z "},"J":{"ha":653,"x_min":11,"x_max":614,"o":"m 599 768 q 581 776 592 768 q 558 795 571 785 q 531 814 546 806 q 499 822 515 822 q 478 817 486 822 q 463 806 469 813 q 449 795 456 800 q 432 790 442 790 q 403 805 415 790 q 380 837 390 819 q 359 869 369 854 q 335 883 349 883 q 299 858 317 883 q 265 801 282 832 q 233 743 249 769 q 203 717 218 717 q 183 768 183 717 q 214 885 183 833 q 293 953 244 936 q 329 972 313 960 q 363 994 346 983 q 397 1014 379 1006 q 440 1022 415 1022 q 506 1005 474 1022 q 561 958 538 988 q 599 892 585 929 q 614 813 614 854 q 599 768 614 768 m 239 365 q 256 372 251 365 q 261 386 260 378 q 264 401 263 394 q 271 407 265 407 q 283 397 279 407 q 289 375 288 386 q 298 345 292 358 q 311 319 304 332 q 323 292 318 306 q 328 263 328 279 q 316 217 328 239 q 286 196 304 196 q 267 210 272 196 q 257 242 261 225 q 245 274 253 260 q 219 289 238 289 q 203 286 211 289 q 190 283 196 283 q 178 292 182 283 q 172 312 174 301 q 167 331 169 322 q 157 339 164 339 q 141 327 149 339 q 122 301 133 315 q 97 274 111 286 q 58 263 82 263 q 11 315 11 263 q 36 376 11 353 q 104 400 61 400 q 144 394 125 400 q 181 383 164 389 q 213 371 199 376 q 239 365 228 365 z "},"K":{"ha":726,"x_min":-7,"x_max":717,"o":"m 22 674 q 2 709 11 674 q -7 789 -7 744 q -1 845 -7 824 q 16 881 6 867 q 41 904 26 894 q 74 924 56 914 q 130 961 107 944 q 172 990 153 978 q 209 1008 190 1001 q 253 1014 228 1014 q 353 978 315 1014 q 390 881 390 942 q 375 843 390 843 q 356 853 367 843 q 335 876 346 864 q 310 898 324 888 q 283 908 297 908 q 257 892 265 908 q 242 856 249 875 q 224 819 235 836 q 192 803 214 803 q 153 814 171 803 q 115 825 135 825 q 74 801 89 825 q 51 749 60 778 q 37 697 43 721 q 22 674 31 674 m 593 906 q 681 878 644 906 q 717 811 717 851 q 696 783 717 783 q 674 791 685 783 q 649 808 663 799 q 620 826 636 818 q 583 833 604 833 q 554 831 571 833 q 522 824 538 828 q 492 817 506 819 q 469 814 478 814 q 460 825 460 814 q 471 853 460 839 q 501 879 482 868 q 544 898 519 890 q 593 906 568 906 m 532 447 q 589 434 560 447 q 642 401 618 421 q 683 356 667 381 q 699 308 699 332 q 678 276 699 276 q 658 289 665 276 q 645 317 651 301 q 631 346 639 333 q 610 358 624 358 q 592 351 599 358 q 574 343 585 343 q 538 359 558 343 q 506 395 518 375 q 498 431 494 415 q 532 447 501 447 z "},"L":{"ha":722,"x_min":43,"x_max":700,"o":"m 429 678 q 413 701 419 678 q 398 753 407 725 q 374 806 389 782 q 331 829 358 829 q 292 818 310 829 q 253 807 274 807 q 218 824 229 807 q 199 860 207 840 q 183 896 192 879 q 156 913 174 913 q 128 902 142 913 q 101 880 114 892 q 78 858 89 868 q 58 847 67 847 q 43 885 43 847 q 82 982 43 946 q 186 1018 121 1018 q 233 1013 214 1018 q 269 999 251 1007 q 304 982 286 990 q 347 969 322 974 q 432 919 406 958 q 458 801 458 879 q 449 715 458 751 q 429 678 440 678 m 458 411 q 442 417 446 411 q 436 428 438 422 q 434 440 435 435 q 428 444 433 444 q 410 414 414 444 q 401 383 407 397 q 388 356 394 369 q 376 330 381 343 q 371 300 371 317 q 383 253 371 274 q 413 233 396 233 q 433 248 428 233 q 442 280 438 263 q 453 312 446 297 q 479 326 461 326 q 495 324 488 326 q 508 321 503 321 q 521 330 517 321 q 527 349 525 339 q 532 368 529 360 q 542 376 535 376 q 558 365 550 376 q 577 338 565 353 q 606 312 589 324 q 647 300 622 300 q 700 347 700 300 q 667 410 700 383 q 586 438 633 438 q 516 424 550 438 q 458 411 482 411 z "},"M":{"ha":928,"x_min":13,"x_max":858,"o":"m 42 657 q 19 672 26 657 q 13 719 13 686 q 49 869 13 806 q 149 956 86 933 q 190 977 174 964 q 222 1001 206 990 q 257 1021 238 1013 q 308 1029 276 1029 q 402 999 368 1029 q 436 915 436 968 q 339 833 436 833 q 282 822 299 833 q 258 798 265 811 q 246 774 250 785 q 225 763 242 763 q 203 772 211 763 q 190 792 196 781 q 178 813 185 804 q 160 822 172 822 q 128 797 140 822 q 105 740 117 771 q 79 683 93 708 q 42 657 65 657 m 583 831 q 558 869 558 831 q 569 917 558 893 q 599 959 581 940 q 638 990 617 978 q 682 1001 660 1001 q 707 996 699 1001 q 722 983 715 990 q 736 971 729 976 q 756 965 743 965 q 790 956 772 965 q 824 930 808 946 q 849 896 839 914 q 858 861 858 878 q 810 828 858 828 q 756 839 778 828 q 719 864 735 850 q 694 889 704 878 q 672 900 683 900 q 651 889 661 900 q 629 865 640 878 q 607 842 618 853 q 583 831 596 831 m 504 765 q 472 722 472 765 q 483 676 472 694 q 508 658 493 658 q 517 661 515 658 q 519 669 518 664 q 523 681 519 674 q 535 694 526 688 q 544 704 536 696 q 551 726 551 713 q 538 753 551 742 q 504 765 525 765 z "},"N":{"ha":822,"x_min":10,"x_max":714,"o":"m 243 1028 q 293 1016 269 1028 q 334 984 317 1004 q 362 937 351 964 q 372 881 372 910 q 354 839 372 839 q 337 851 344 839 q 321 876 329 863 q 302 902 313 890 q 276 914 292 914 q 244 889 254 914 q 228 834 235 864 q 216 779 222 804 q 193 754 210 754 q 177 760 185 754 q 161 775 169 767 q 144 790 153 783 q 124 796 135 796 q 91 777 106 796 q 65 737 76 758 q 42 697 53 715 q 24 678 32 678 q 10 753 10 678 q 101 957 10 957 q 140 968 125 957 q 169 992 156 979 q 200 1017 183 1006 q 243 1028 217 1028 m 488 675 q 505 640 497 675 q 513 560 513 604 q 510 513 513 536 q 503 470 507 489 q 493 440 499 451 q 482 428 488 428 q 472 437 476 428 q 463 459 467 446 q 453 487 458 472 q 443 514 449 501 q 425 547 435 535 q 407 571 415 560 q 393 594 399 582 q 388 626 388 606 q 397 673 388 654 q 421 692 407 692 q 438 681 432 692 q 449 656 444 669 q 459 631 454 642 q 469 619 464 619 q 476 628 475 619 q 479 648 478 638 q 482 667 481 658 q 488 675 483 675 m 626 1000 q 576 986 599 1000 q 554 957 554 972 q 575 943 554 943 q 599 939 589 943 q 619 931 608 935 q 641 922 629 926 q 669 918 653 918 q 714 944 714 918 q 686 983 714 965 q 626 1000 658 1000 z "},"O":{"ha":754,"x_min":22,"x_max":760,"o":"m 385 439 q 397 423 392 439 q 401 382 401 407 q 392 319 401 346 q 368 292 383 292 q 357 297 361 292 q 347 310 353 303 q 333 323 342 317 q 310 331 325 329 q 294 331 301 332 q 281 331 286 331 q 272 336 275 332 q 268 350 268 340 q 275 376 268 365 q 290 388 282 388 q 310 373 301 388 q 331 358 319 358 q 348 371 340 358 q 362 399 356 383 q 374 426 368 414 q 385 439 379 439 m 760 701 q 753 646 760 669 q 735 622 746 622 q 703 651 722 622 q 657 715 685 681 q 594 778 629 749 q 513 807 558 807 q 476 801 492 807 q 447 787 461 794 q 416 773 432 779 q 376 767 400 767 q 315 783 339 767 q 273 819 292 800 q 238 856 254 839 q 199 872 221 872 q 152 851 174 872 q 112 806 131 831 q 77 760 93 781 q 49 739 61 739 q 30 758 38 739 q 22 807 22 778 q 78 928 22 885 q 233 972 133 972 q 306 979 275 972 q 362 994 336 986 q 410 1008 388 1001 q 454 1015 432 1015 q 519 997 492 1015 q 572 951 547 978 q 620 897 596 925 q 678 851 644 869 q 760 701 760 806 z "},"P":{"ha":678,"x_min":-12,"x_max":607,"o":"m 226 926 q 183 901 200 926 q 155 837 167 875 q 133 753 143 799 q 112 670 124 708 q 84 606 100 632 q 43 581 68 581 q 1 613 15 581 q -12 704 -12 644 q 22 874 -12 800 q 119 982 57 947 q 165 1000 144 996 q 207 1007 186 1004 q 250 1015 228 1010 q 300 1035 272 1019 q 371 1064 332 1053 q 440 1075 410 1075 q 503 1062 474 1075 q 556 1027 533 1049 q 593 977 579 1006 q 607 918 607 949 q 571 872 607 872 q 532 885 550 872 q 497 912 514 897 q 465 938 481 926 q 435 950 450 950 q 412 940 421 950 q 394 917 403 929 q 373 894 385 904 q 340 883 361 883 q 309 890 324 883 q 281 905 294 897 q 253 919 267 913 q 226 926 240 926 m 285 601 q 303 610 296 601 q 317 630 311 619 q 327 649 322 640 q 336 658 332 658 q 347 618 347 658 q 340 569 347 589 q 322 550 333 550 q 307 554 315 550 q 290 558 299 558 q 278 549 279 558 q 278 528 276 540 q 279 508 279 517 q 271 499 279 499 q 243 526 256 499 q 231 579 231 553 q 250 614 231 614 q 265 608 257 614 q 285 601 274 601 z "},"Q":{"ha":754,"x_min":39,"x_max":739,"o":"m 353 842 q 317 849 332 842 q 288 866 301 857 q 263 883 275 875 q 233 890 250 890 q 180 867 204 890 q 135 818 156 844 q 97 769 114 792 q 64 747 79 747 q 46 760 53 747 q 39 793 39 772 q 55 844 39 826 q 94 877 71 863 q 141 908 117 892 q 181 956 165 925 q 260 1032 204 1003 q 386 1060 317 1061 q 487 1036 447 1058 q 556 985 526 1014 q 611 927 586 956 q 667 886 636 899 q 715 804 715 865 q 706 758 715 775 q 676 742 696 742 q 628 765 653 742 q 576 816 603 788 q 522 867 550 844 q 463 890 493 890 q 433 883 444 890 q 411 866 422 875 q 387 849 400 857 q 353 842 374 842 m 383 403 q 407 381 397 403 q 417 329 417 358 q 413 294 417 311 q 403 263 410 276 q 390 240 397 249 q 374 231 382 231 q 358 241 365 231 q 344 264 351 251 q 326 288 336 276 q 297 300 315 299 q 274 300 283 301 q 264 317 264 299 q 270 350 264 336 q 285 364 276 364 q 296 358 290 364 q 306 344 301 351 q 317 331 311 338 q 329 325 324 325 q 344 338 339 325 q 356 365 350 350 q 367 391 361 379 q 383 403 374 403 m 629 135 q 614 147 621 135 q 607 174 607 158 q 615 193 607 193 q 627 184 619 193 q 664 169 635 175 q 718 144 697 163 q 739 103 739 126 q 735 85 739 92 q 724 78 731 78 q 708 90 715 78 q 692 115 700 101 q 676 141 685 129 q 658 153 668 153 q 643 144 649 153 q 629 135 638 135 z "},"R":{"ha":794,"x_min":13,"x_max":763,"o":"m 540 863 q 510 861 526 863 q 475 857 493 860 q 424 851 449 854 q 379 847 399 847 q 336 853 353 847 q 306 867 319 860 q 277 881 292 875 q 240 888 263 888 q 166 863 197 888 q 113 810 135 839 q 74 756 90 781 q 44 732 58 732 q 22 758 31 732 q 13 822 13 785 q 49 936 13 894 q 147 978 85 978 q 210 987 179 978 q 274 1008 240 996 q 344 1028 307 1019 q 422 1038 381 1038 q 513 1021 479 1038 q 567 983 546 1004 q 605 944 589 963 q 642 919 621 925 q 669 905 656 915 q 692 878 682 894 q 707 844 701 863 q 713 806 713 825 q 693 768 713 768 q 678 775 685 768 q 662 793 671 782 q 642 817 653 804 q 617 839 632 829 q 583 856 601 850 q 540 863 565 863 m 410 590 q 420 578 417 590 q 428 553 424 567 q 438 528 432 540 q 456 517 443 517 q 468 522 464 517 q 474 535 472 528 q 479 549 476 543 q 488 554 482 554 q 500 547 493 554 q 513 529 507 540 q 522 505 518 518 q 525 479 525 492 q 520 456 525 465 q 508 446 515 446 q 498 453 501 446 q 490 471 494 461 q 477 488 485 481 q 454 496 469 496 q 430 488 436 496 q 414 481 424 481 q 392 539 392 481 q 397 576 392 561 q 410 590 403 590 m 631 326 q 610 352 617 326 q 606 410 603 378 q 618 432 607 432 q 636 427 625 432 q 660 416 647 422 q 687 404 674 410 q 713 399 700 399 q 748 381 733 399 q 763 336 763 364 q 744 311 763 311 q 718 322 729 311 q 699 346 707 333 q 683 369 690 358 q 665 381 675 381 q 653 372 657 381 q 647 353 650 364 q 642 335 644 343 q 631 326 639 326 z "},"S":{"ha":665,"x_min":-4,"x_max":640,"o":"m 17 750 q -4 803 -4 750 q 17 890 -4 858 q 74 922 38 922 q 121 936 99 922 q 167 966 143 950 q 218 996 190 982 q 283 1010 246 1010 q 324 1013 303 1010 q 367 1021 346 1017 q 410 1028 389 1025 q 447 1032 431 1032 q 515 1015 481 1032 q 576 973 549 999 q 619 914 603 947 q 636 847 636 881 q 629 832 636 832 q 617 839 622 832 q 607 853 613 846 q 594 868 601 861 q 576 875 588 875 q 560 869 567 875 q 547 857 553 864 q 533 844 540 850 q 515 839 526 839 q 487 851 500 839 q 458 878 474 864 q 424 906 443 893 q 376 918 404 918 q 319 899 343 918 q 276 858 296 881 q 239 818 257 836 q 199 800 221 800 q 161 810 181 800 q 114 819 142 819 q 74 808 89 819 q 51 784 60 797 q 34 760 42 771 q 17 750 26 750 m 1 260 q 42 353 1 318 q 149 389 82 389 q 198 394 178 389 q 229 399 218 399 q 236 390 236 399 q 219 346 236 367 q 183 325 203 325 q 162 331 172 325 q 139 336 151 336 q 101 319 118 336 q 67 283 83 303 q 38 246 51 263 q 14 229 25 229 q 1 260 1 229 m 540 503 q 528 496 528 503 q 541 478 528 486 q 561 464 554 469 q 583 439 576 454 q 592 410 589 424 q 599 386 596 396 q 610 376 601 376 q 631 393 621 376 q 640 425 640 410 q 631 453 640 439 q 608 478 622 467 q 575 496 593 489 q 540 503 557 503 z "},"T":{"ha":790,"x_min":-31,"x_max":750,"o":"m -1 746 q -22 771 -14 746 q -31 833 -31 796 q -19 896 -31 876 q 15 929 -7 915 q 65 959 36 943 q 128 1011 94 975 q 147 1031 138 1021 q 166 1050 156 1042 q 188 1063 176 1058 q 217 1068 200 1068 q 251 1063 235 1068 q 287 1050 268 1057 q 328 1038 306 1043 q 376 1032 350 1032 q 434 1016 417 1032 q 451 964 451 1000 q 421 880 451 911 q 342 849 390 849 q 298 853 321 849 q 252 865 275 858 q 207 876 229 871 q 167 881 185 881 q 103 860 129 881 q 57 813 76 839 q 24 767 38 788 q -1 746 10 746 m 526 1031 q 469 974 469 1031 q 490 919 469 940 q 547 899 511 899 q 593 910 578 899 q 626 921 608 921 q 653 908 643 921 q 671 881 663 896 q 688 854 679 867 q 710 842 696 842 q 738 860 725 842 q 750 901 750 878 q 681 964 750 957 q 634 977 653 967 q 599 999 615 988 q 567 1021 583 1011 q 526 1031 550 1031 z "},"U":{"ha":832,"x_min":35,"x_max":800,"o":"m 447 828 q 404 779 447 779 q 356 799 376 779 q 317 841 336 818 q 279 883 299 864 q 233 901 260 901 q 181 879 206 901 q 133 831 156 857 q 92 782 111 804 q 56 760 72 760 q 35 800 35 760 q 56 885 35 844 q 115 957 78 926 q 201 1006 153 988 q 304 1024 250 1024 q 393 1005 360 1024 q 425 956 426 986 q 428 928 425 944 q 436 895 432 913 q 444 860 440 878 q 447 828 447 843 m 519 790 q 522 849 519 828 q 531 881 525 869 q 545 897 536 892 q 567 908 554 903 q 606 931 593 921 q 628 948 619 940 q 642 960 636 956 q 660 964 649 964 q 708 948 683 964 q 753 907 732 932 q 787 851 774 882 q 800 792 800 821 q 792 771 800 771 q 778 781 786 771 q 762 804 771 792 q 740 827 753 817 q 713 838 728 838 q 693 832 701 838 q 676 820 685 826 q 656 808 668 814 q 626 803 644 803 q 603 806 610 803 q 589 810 596 810 q 569 795 578 810 q 553 763 560 781 q 540 730 546 744 q 529 715 535 715 q 522 735 524 715 q 519 790 519 756 z "},"V":{"ha":881,"x_min":-12,"x_max":871,"o":"m 283 1025 q 333 1013 310 1025 q 375 982 357 1001 q 403 937 393 963 q 414 882 414 911 q 401 826 414 849 q 369 803 389 803 q 340 820 353 803 q 315 858 326 838 q 294 895 304 878 q 271 913 283 913 q 251 892 258 913 q 235 847 243 871 q 216 801 228 822 q 182 781 204 781 q 162 785 171 781 q 144 796 153 790 q 126 806 135 801 q 108 811 118 811 q 76 785 88 811 q 55 730 64 760 q 38 674 46 700 q 15 649 29 649 q -6 676 1 649 q -12 754 -12 704 q 24 927 -12 868 q 131 986 60 986 q 174 992 154 986 q 210 1006 193 999 q 245 1019 228 1013 q 283 1025 263 1025 m 538 742 q 525 771 525 742 q 542 849 525 808 q 584 923 558 889 q 641 979 610 957 q 700 1001 672 1001 q 744 994 714 1001 q 808 977 783 986 q 846 956 832 968 q 865 926 860 943 q 871 885 871 910 q 867 851 871 861 q 858 842 864 842 q 844 855 851 842 q 829 883 838 868 q 811 912 821 899 q 789 925 801 925 q 772 917 779 925 q 758 898 765 908 q 742 878 751 888 q 717 869 732 869 q 693 879 700 869 q 682 901 686 889 q 675 924 678 914 q 664 933 672 933 q 633 903 650 933 q 600 838 617 874 q 567 772 583 801 q 538 742 551 742 z "},"W":{"ha":958,"x_min":35,"x_max":942,"o":"m 129 885 q 101 863 113 879 q 82 831 90 847 q 66 801 74 814 q 46 789 58 789 q 35 813 35 789 q 51 887 35 850 q 92 951 67 924 q 151 997 118 979 q 219 1014 185 1014 q 276 1003 249 1014 q 327 973 304 992 q 364 932 350 954 q 378 886 378 910 q 366 840 378 863 q 342 818 354 818 q 322 836 331 818 q 306 876 314 854 q 288 917 297 899 q 267 935 279 935 q 252 926 258 935 q 239 906 246 917 q 222 887 232 896 q 194 878 213 878 q 163 885 176 878 q 129 885 149 892 m 485 681 q 469 697 472 681 q 466 732 467 713 q 463 767 465 751 q 447 783 460 783 q 434 775 436 783 q 424 767 432 767 q 411 790 411 767 q 425 833 411 817 q 463 849 439 849 q 492 842 476 849 q 522 826 508 836 q 544 806 535 817 q 553 783 553 794 q 536 771 553 771 q 511 757 517 771 q 503 726 506 743 q 499 694 501 708 q 485 681 497 681 m 796 844 q 776 856 785 844 q 760 880 768 867 q 742 904 751 893 q 718 915 732 915 q 693 906 706 915 q 670 885 681 897 q 651 865 660 874 q 638 856 643 856 q 631 872 631 856 q 669 960 631 926 q 772 993 708 993 q 840 982 808 993 q 894 950 871 971 q 929 901 917 929 q 942 840 942 874 q 933 797 942 813 q 908 781 924 781 q 884 797 892 781 q 871 835 876 814 q 860 872 865 856 q 844 889 856 889 q 833 882 838 889 q 822 867 828 875 q 810 851 817 858 q 796 844 804 844 m 381 596 q 366 590 369 596 q 363 575 363 583 q 368 552 363 564 q 381 540 374 540 q 388 546 385 540 q 393 558 392 551 q 395 572 394 565 q 396 581 396 578 q 381 596 396 596 z "},"X":{"ha":804,"x_min":14,"x_max":764,"o":"m 228 860 q 208 868 218 860 q 185 887 197 876 q 160 906 174 897 q 135 914 147 914 q 101 897 117 914 q 74 859 86 879 q 51 822 61 839 q 32 804 42 804 q 19 817 24 804 q 14 849 14 829 q 28 911 14 882 q 68 962 43 940 q 127 996 93 983 q 200 1008 161 1008 q 291 984 256 1008 q 326 921 326 960 q 322 910 326 910 q 310 918 315 910 q 289 926 304 926 q 267 916 275 926 q 254 893 260 906 q 243 870 249 881 q 228 860 238 860 m 444 813 q 438 815 439 813 q 436 829 436 818 q 447 885 436 865 q 475 919 458 906 q 512 942 492 932 q 550 969 532 953 q 601 1001 572 989 q 657 1013 629 1013 q 735 977 706 1013 q 764 883 764 942 q 750 849 764 849 q 732 860 740 849 q 715 884 724 871 q 697 909 707 897 q 672 921 688 921 q 651 910 657 922 q 641 884 644 899 q 635 858 638 869 q 624 846 632 846 q 608 856 615 846 q 594 878 601 865 q 576 900 586 890 q 554 910 567 910 q 526 894 539 910 q 499 861 513 879 q 473 828 486 843 q 444 813 460 813 m 603 386 q 582 411 589 386 q 578 469 575 436 q 589 492 579 492 q 609 484 596 492 q 638 467 622 476 q 669 448 654 457 q 697 436 685 439 q 732 374 732 426 q 715 343 732 343 q 688 358 699 343 q 669 392 678 374 q 653 425 661 410 q 636 440 646 440 q 625 432 628 440 q 619 413 622 424 q 614 394 617 403 q 603 386 611 386 m 186 465 q 151 415 186 413 q 119 403 133 417 q 93 374 106 390 q 69 344 81 358 q 43 331 57 331 q 36 335 35 331 q 42 347 38 340 q 52 363 47 354 q 57 376 57 371 q 72 404 57 386 q 106 440 86 422 q 145 472 125 458 q 176 485 165 485 q 186 465 186 485 z "},"Y":{"ha":735,"x_min":1,"x_max":689,"o":"m 135 838 q 121 851 125 838 q 115 882 117 865 q 108 913 113 899 q 93 926 104 926 q 72 913 82 926 q 51 883 61 900 q 31 853 40 867 q 11 840 21 840 q 1 861 1 840 q 13 914 1 889 q 43 959 24 939 q 88 991 63 979 q 140 1004 113 1003 q 187 1015 169 1006 q 233 1025 204 1025 q 322 906 322 1025 q 319 884 322 889 q 301 879 315 879 q 242 891 269 879 q 200 903 215 903 q 179 892 188 903 q 164 870 171 882 q 150 848 157 858 q 135 838 143 838 m 446 921 q 438 928 438 921 q 454 960 438 942 q 496 994 471 978 q 549 1022 521 1011 q 597 1033 576 1033 q 661 1004 633 1033 q 689 935 689 975 q 681 915 689 915 q 660 927 671 915 q 635 939 649 939 q 617 926 622 939 q 608 899 613 914 q 599 872 604 885 q 581 860 593 860 q 563 873 568 860 q 553 902 557 886 q 543 931 549 918 q 525 944 538 944 q 488 933 511 944 q 446 921 465 921 m 349 675 q 352 703 349 690 q 358 715 356 715 q 364 709 361 715 q 369 696 367 703 q 377 683 372 689 q 388 676 382 676 q 401 689 397 676 q 405 716 404 701 q 406 743 406 731 q 411 756 407 756 q 422 730 417 756 q 426 672 426 704 q 417 624 426 624 q 408 629 413 624 q 396 635 403 635 q 382 628 388 635 q 371 622 376 622 q 356 638 363 622 q 349 675 349 654 z "},"Z":{"ha":668,"x_min":13,"x_max":683,"o":"m 638 767 q 606 781 617 767 q 588 814 594 796 q 574 847 581 832 q 551 861 567 861 q 533 854 542 861 q 514 840 524 847 q 492 825 504 832 q 461 818 479 818 q 415 833 435 818 q 377 867 396 849 q 335 901 358 886 q 279 917 313 917 q 247 912 261 917 q 218 901 232 907 q 190 891 204 896 q 160 886 176 886 q 122 893 136 886 q 97 900 108 900 q 78 892 88 900 q 60 876 68 885 q 43 860 51 868 q 26 853 35 853 q 13 876 13 853 q 26 926 13 901 q 60 969 39 950 q 109 1001 82 989 q 164 1013 136 1013 q 197 1008 183 1013 q 229 1004 211 1004 q 263 1010 247 1004 q 293 1023 278 1015 q 326 1036 308 1031 q 367 1042 344 1042 q 418 1033 394 1042 q 465 1011 442 1024 q 513 985 488 999 q 571 963 539 971 q 683 835 683 933 q 638 767 683 767 m 419 328 q 428 340 419 339 q 440 342 438 342 q 503 336 464 342 q 575 335 542 331 q 653 317 624 342 q 683 250 683 293 q 664 213 683 213 q 639 226 653 213 q 608 257 625 240 q 574 288 592 274 q 536 301 556 301 q 503 290 517 301 q 475 279 490 279 q 438 296 457 279 q 419 328 419 313 z "},"a":{"ha":683,"x_min":24,"x_max":638,"o":"m 614 717 q 635 650 633 676 q 632 624 638 624 q 618 635 628 624 q 595 660 608 646 q 568 685 582 674 q 542 696 554 696 q 517 685 528 696 q 486 675 506 675 q 449 692 465 675 q 417 731 433 710 q 381 769 401 751 q 332 788 361 788 q 292 778 310 788 q 256 756 274 768 q 221 735 239 744 q 181 726 203 726 q 153 731 165 726 q 130 741 140 736 q 110 751 119 746 q 90 756 100 756 q 71 748 79 756 q 56 732 63 740 q 43 716 49 724 q 32 708 38 708 q 24 732 24 708 q 33 785 24 760 q 60 829 43 810 q 98 860 76 849 q 143 871 119 871 q 174 866 160 871 q 201 856 188 861 q 229 845 214 850 q 263 840 244 840 q 302 850 288 840 q 328 871 317 860 q 353 892 340 882 q 390 901 367 901 q 450 887 418 901 q 513 847 482 872 q 569 788 543 821 q 614 717 596 754 m 451 401 q 463 388 457 401 q 468 361 468 374 q 460 334 468 347 q 444 321 453 321 q 428 331 436 321 q 406 340 419 340 q 383 330 390 340 q 365 319 375 319 q 351 327 358 319 q 337 345 343 335 q 328 365 331 356 q 331 379 326 375 q 346 375 336 383 q 369 367 356 367 q 392 360 382 367 q 410 353 401 353 q 424 360 418 353 q 435 377 431 368 q 444 394 440 386 q 451 401 449 401 m 204 513 q 199 518 204 518 q 174 506 190 518 q 133 494 158 493 q 103 474 107 494 q 118 453 101 453 q 140 467 132 453 q 156 483 149 481 q 168 483 160 486 q 182 481 176 481 q 199 493 193 481 q 204 513 204 506 z "},"b":{"ha":750,"x_min":28,"x_max":690,"o":"m 33 856 q 28 890 28 856 q 37 967 28 931 q 62 1033 46 1004 q 98 1080 78 1063 q 139 1097 118 1097 q 163 1092 153 1097 q 192 1086 174 1086 q 234 1094 211 1086 q 281 1101 257 1101 q 328 1090 306 1101 q 367 1061 350 1079 q 394 1019 383 1043 q 404 969 404 996 q 399 954 404 954 q 388 961 394 954 q 372 976 381 968 q 351 990 363 983 q 328 997 340 997 q 306 990 314 997 q 292 973 299 982 q 276 956 285 964 q 250 949 267 949 q 225 958 233 949 q 211 977 217 967 q 199 996 206 988 q 181 1004 193 1004 q 135 981 160 1004 q 90 930 111 958 q 53 878 69 901 q 33 856 38 856 m 468 793 q 489 824 468 808 q 532 839 510 839 q 580 826 553 839 q 631 794 607 813 q 673 754 656 775 q 690 718 690 733 q 686 711 690 711 q 676 717 683 711 q 660 729 669 722 q 640 742 650 736 q 619 747 629 747 q 603 740 608 747 q 594 723 597 732 q 588 706 590 714 q 578 699 585 699 q 563 710 569 699 q 549 737 557 722 q 528 763 540 751 q 494 775 515 775 q 468 793 468 775 m 388 488 q 392 515 388 504 q 403 525 396 525 q 415 517 410 525 q 424 499 419 508 q 435 481 429 489 q 447 472 440 472 q 461 480 454 472 q 475 497 468 488 q 488 515 482 507 q 499 522 494 522 q 508 506 504 522 q 513 471 513 490 q 500 440 513 440 q 481 447 493 440 q 446 454 469 454 q 418 449 426 454 q 404 444 410 444 q 392 456 397 444 q 388 488 388 468 z "},"c":{"ha":626,"x_min":58,"x_max":611,"o":"m 326 750 q 296 758 308 750 q 274 775 283 765 q 253 792 264 785 q 229 800 243 800 q 179 776 204 800 q 131 725 154 753 q 90 674 108 697 q 63 651 72 651 q 59 654 60 651 q 58 668 58 657 q 72 745 58 706 q 109 816 86 785 q 162 867 132 847 q 222 888 192 888 q 243 885 235 888 q 260 878 251 882 q 283 872 269 875 q 321 869 297 869 q 370 873 350 869 q 405 882 390 876 q 430 892 419 888 q 450 896 440 896 q 481 885 465 896 q 510 856 497 874 q 530 818 522 839 q 538 778 538 797 q 532 765 538 765 q 517 772 526 765 q 497 788 508 779 q 469 804 485 797 q 438 811 454 811 q 405 801 417 811 q 382 781 393 792 q 359 760 371 769 q 326 750 347 750 m 418 469 q 469 460 446 469 q 517 450 492 450 q 549 452 532 450 q 581 443 567 454 q 603 403 596 429 q 611 363 611 376 q 606 351 611 351 q 592 360 600 351 q 576 378 585 368 q 554 396 567 388 q 526 404 542 404 q 488 392 506 404 q 438 381 471 381 q 388 397 403 381 q 372 432 372 413 q 385 460 372 451 q 418 469 397 469 z "},"d":{"ha":728,"x_min":165,"x_max":607,"o":"m 301 893 q 296 915 296 893 q 333 1031 296 986 q 429 1076 371 1076 q 459 1081 447 1076 q 479 1090 471 1085 q 496 1100 488 1096 q 515 1104 504 1104 q 549 1094 532 1104 q 578 1065 565 1083 q 599 1026 590 1047 q 607 981 607 1004 q 603 967 607 967 q 593 973 599 967 q 578 988 588 979 q 557 1002 569 996 q 528 1008 544 1008 q 501 1003 513 1008 q 476 990 489 997 q 451 978 464 983 q 419 972 438 972 q 373 960 393 972 q 338 933 353 947 q 315 906 324 918 q 301 893 306 893 m 258 833 q 194 818 222 833 q 165 783 165 803 q 181 768 165 768 q 217 778 193 768 q 256 788 240 788 q 273 782 267 788 q 283 769 279 776 q 292 757 288 763 q 300 751 296 751 q 312 763 307 751 q 317 789 317 775 q 258 833 317 833 m 240 485 q 247 478 244 485 q 254 463 250 471 q 264 447 258 454 q 279 440 269 440 q 305 453 294 440 q 331 465 315 465 q 346 451 346 465 q 340 437 346 443 q 324 431 333 431 q 310 425 315 431 q 303 413 306 419 q 297 401 300 407 q 289 396 293 396 q 278 404 282 396 q 263 419 275 413 q 237 429 249 426 q 225 450 225 432 q 230 474 225 463 q 240 485 235 485 z "},"e":{"ha":667,"x_min":118,"x_max":596,"o":"m 129 722 q 118 733 118 722 q 140 783 118 757 q 197 832 163 810 q 271 869 231 854 q 347 883 311 883 q 381 879 368 883 q 404 869 393 875 q 430 856 415 863 q 469 844 444 849 q 514 840 492 840 q 554 835 536 839 q 584 820 572 831 q 596 788 596 810 q 591 765 596 774 q 579 756 586 756 q 568 761 574 756 q 556 773 563 767 q 541 784 549 779 q 522 789 533 789 q 500 781 510 789 q 481 763 490 772 q 459 744 471 753 q 431 736 447 736 q 399 744 414 736 q 369 763 385 753 q 335 782 353 774 q 292 790 317 790 q 241 779 264 790 q 199 756 218 768 q 163 733 179 743 q 129 722 146 722 m 318 474 q 301 483 304 474 q 293 492 299 492 q 286 485 289 492 q 283 468 283 478 q 290 454 283 454 q 297 447 296 454 q 298 430 300 440 q 303 419 296 419 q 323 437 311 419 q 335 463 335 454 q 330 471 335 468 q 318 474 325 474 m 425 260 q 396 279 396 260 q 404 291 396 288 q 433 294 413 294 q 473 298 458 294 q 498 306 488 301 q 517 315 508 311 q 535 318 525 318 q 558 310 549 318 q 567 290 567 303 q 556 263 567 276 q 532 250 544 250 q 508 261 519 250 q 479 272 497 272 q 453 266 465 272 q 425 260 440 260 z "},"f":{"ha":564,"x_min":104,"x_max":589,"o":"m 126 892 q 104 910 104 892 q 125 963 104 936 q 174 999 146 990 q 208 1018 193 1004 q 240 1047 222 1032 q 283 1072 257 1061 q 350 1083 308 1083 q 437 1070 394 1083 q 513 1035 479 1057 q 568 987 547 1014 q 589 932 589 960 q 586 918 589 918 q 580 924 585 918 q 567 937 575 929 q 549 950 558 944 q 526 956 539 956 q 511 951 517 956 q 500 942 506 947 q 488 933 494 938 q 471 929 482 929 q 438 938 454 929 q 401 958 421 947 q 359 977 382 968 q 307 986 336 986 q 248 972 269 986 q 210 939 226 957 q 175 906 193 921 q 126 892 157 892 m 475 544 q 461 557 467 544 q 456 586 456 569 q 490 628 456 628 q 532 616 510 628 q 554 593 554 604 q 535 579 554 579 q 513 588 521 579 q 497 596 504 596 q 490 588 492 596 q 488 570 489 579 q 485 553 488 561 q 475 544 482 544 z "},"g":{"ha":743,"x_min":131,"x_max":579,"o":"m 346 742 q 328 753 336 742 q 313 778 321 764 q 296 803 306 792 q 272 814 286 814 q 253 808 261 814 q 238 794 246 801 q 220 780 229 786 q 196 774 211 774 q 172 770 183 774 q 151 764 161 767 q 136 762 142 761 q 131 772 131 763 q 142 800 131 786 q 175 826 154 814 q 223 849 196 839 q 281 863 250 858 q 352 882 328 869 q 399 894 376 894 q 454 878 422 894 q 515 840 486 863 q 561 794 543 818 q 574 757 579 771 q 565 753 571 750 q 548 764 558 757 q 523 778 538 771 q 492 785 508 785 q 451 797 467 785 q 418 808 435 808 q 395 798 404 808 q 378 775 386 788 q 363 752 371 763 q 346 742 356 742 m 408 417 q 387 428 397 417 q 376 451 376 440 q 385 463 376 463 q 414 451 396 463 q 447 440 432 440 q 467 449 463 440 q 475 458 472 458 q 480 449 478 458 q 482 430 482 440 q 479 410 482 419 q 469 401 476 401 q 452 413 461 401 q 428 424 443 424 q 417 420 419 424 q 408 417 415 417 m 379 190 q 438 186 422 190 q 453 172 453 182 q 438 150 453 161 q 410 139 424 139 q 398 142 403 139 q 388 151 393 146 q 375 159 382 156 q 357 163 368 163 q 323 153 340 163 q 288 134 306 144 q 251 115 271 124 q 207 106 231 106 q 174 112 188 106 q 161 129 161 118 q 217 170 161 150 q 379 190 274 190 z "},"h":{"ha":765,"x_min":53,"x_max":632,"o":"m 79 1000 q 143 1056 101 1036 q 243 1075 185 1075 q 332 1058 301 1075 q 375 1022 363 1042 q 386 985 388 1001 q 378 968 385 968 q 365 976 374 968 q 347 994 357 985 q 324 1013 336 1004 q 300 1021 313 1021 q 283 1015 290 1021 q 271 1001 276 1008 q 259 987 265 993 q 242 981 253 981 q 210 992 225 981 q 176 1004 196 1004 q 140 985 156 1004 q 113 944 125 967 q 91 904 101 922 q 68 886 81 886 q 56 898 58 886 q 55 927 53 910 q 63 965 57 944 q 79 1000 69 985 m 426 786 q 435 801 426 793 q 458 815 444 808 q 487 825 471 821 q 517 829 503 829 q 556 823 536 829 q 593 808 576 817 q 621 787 610 799 q 632 765 632 775 q 596 747 632 747 q 561 753 574 747 q 539 765 549 758 q 519 776 529 771 q 490 781 508 781 q 469 779 481 781 q 449 778 458 778 q 433 779 439 778 q 426 786 426 781 z "},"i":{"ha":439,"x_min":85,"x_max":360,"o":"m 151 1025 q 113 1022 131 1025 q 89 1026 94 1018 q 90 1037 86 1031 q 101 1049 94 1043 q 113 1060 107 1056 q 124 1068 119 1065 q 157 1096 144 1083 q 180 1117 169 1108 q 201 1131 190 1126 q 228 1136 211 1136 q 269 1125 256 1136 q 293 1104 282 1114 q 315 1087 303 1094 q 336 1072 326 1079 q 353 1057 346 1065 q 360 1038 360 1049 q 351 1012 360 1025 q 331 987 343 999 q 303 968 318 975 q 275 961 289 961 q 246 973 257 961 q 221 997 235 985 q 194 1017 210 1008 q 151 1025 178 1026 m 147 713 q 126 708 138 713 q 106 699 115 703 q 90 694 96 694 q 85 704 85 694 q 96 738 85 719 q 122 765 107 757 q 150 773 133 772 q 183 773 167 774 q 215 770 200 772 q 238 768 229 768 q 281 778 258 768 q 319 788 304 788 q 339 778 332 788 q 348 757 346 768 q 349 735 350 746 q 344 724 347 725 q 321 728 340 721 q 288 735 301 735 q 269 728 276 735 q 258 715 263 722 q 247 702 253 708 q 233 696 242 696 q 222 701 225 696 q 215 713 218 707 q 206 724 211 719 q 193 729 201 729 q 171 721 181 729 q 147 713 161 713 z "},"j":{"ha":447,"x_min":-136,"x_max":311,"o":"m 250 707 q 220 715 231 707 q 202 731 210 722 q 188 747 194 739 q 171 754 182 754 q 138 746 158 754 q 97 729 118 738 q 60 716 76 721 q 42 717 44 711 q 42 734 39 721 q 55 761 44 747 q 84 786 65 775 q 132 797 103 797 q 172 803 154 797 q 206 816 190 808 q 234 829 221 824 q 260 835 247 835 q 296 816 281 835 q 311 769 311 797 q 294 724 311 742 q 250 707 278 707 m 197 1033 q 153 1027 169 1035 q 125 1010 138 1019 q 95 983 108 996 q 61 969 82 969 q 31 976 47 969 q 1 994 14 983 q -22 1019 -12 1006 q -31 1044 -31 1032 q -23 1065 -31 1056 q -4 1081 -15 1074 q 19 1095 7 1088 q 43 1113 32 1103 q 69 1133 54 1122 q 115 1144 83 1144 q 219 1111 171 1144 q 261 1071 249 1092 q 267 1039 274 1050 q 240 1031 260 1028 q 197 1033 219 1033 m 57 93 q 47 98 51 93 q 32 103 43 103 q 3 89 14 103 q -17 59 -8 75 q -33 29 -25 43 q -54 15 -42 15 q -67 20 -62 15 q -76 25 -72 25 q -87 13 -82 25 q -96 -15 -92 0 q -105 -42 -100 -29 q -115 -56 -110 -56 q -130 -36 -124 -57 q -136 11 -136 -15 q -112 89 -136 58 q -40 139 -89 119 q 35 181 8 158 q 74 203 63 203 q 83 174 83 203 q 76 118 83 143 q 57 93 68 93 z "},"k":{"ha":685,"x_min":28,"x_max":660,"o":"m 36 835 q 28 875 28 835 q 38 955 28 918 q 65 1018 47 992 q 106 1060 82 1044 q 158 1075 131 1075 q 177 1073 169 1075 q 191 1068 185 1071 q 205 1063 197 1065 q 225 1061 213 1061 q 275 1051 250 1061 q 320 1027 300 1042 q 353 994 340 1013 q 365 957 365 975 q 360 946 365 946 q 345 951 354 946 q 324 965 336 957 q 299 978 313 972 q 274 983 286 983 q 251 974 257 983 q 242 952 246 964 q 233 931 239 940 q 207 921 226 921 q 183 928 190 921 q 172 946 176 936 q 163 963 168 956 q 144 971 158 971 q 105 950 122 971 q 74 903 88 929 q 51 856 61 878 q 36 835 42 835 m 626 747 q 587 755 606 747 q 552 772 568 763 q 524 790 536 782 q 504 797 511 797 q 492 789 497 797 q 481 770 488 781 q 463 751 474 760 q 436 743 453 743 q 415 760 415 743 q 430 792 415 775 q 467 822 444 808 q 517 846 490 836 q 571 856 544 856 q 635 836 611 857 q 660 781 660 815 q 626 747 660 747 m 582 404 q 571 397 571 404 q 585 367 571 382 q 624 353 600 353 q 634 355 629 353 q 639 364 639 357 q 619 392 639 379 q 582 404 600 404 z "},"l":{"ha":439,"x_min":58,"x_max":388,"o":"m 197 944 q 188 951 189 944 q 185 967 186 958 q 181 982 183 975 q 167 989 178 989 q 135 974 151 989 q 106 940 119 958 q 82 907 93 922 q 64 892 71 892 q 58 915 58 892 q 67 996 58 956 q 90 1050 76 1036 q 115 1067 99 1058 q 153 1084 132 1076 q 198 1097 175 1092 q 239 1101 221 1101 q 294 1090 267 1101 q 342 1060 321 1079 q 375 1015 363 1040 q 388 963 388 990 q 372 931 388 931 q 354 940 365 931 q 329 960 343 949 q 300 981 315 972 q 268 990 285 990 q 244 983 254 990 q 227 967 235 976 q 213 951 219 958 q 197 944 206 944 z "},"m":{"ha":851,"x_min":40,"x_max":729,"o":"m 289 811 q 250 797 271 811 q 206 761 229 782 q 171 729 189 746 q 134 699 153 713 q 97 676 115 685 q 61 667 79 667 q 45 672 50 667 q 40 693 40 678 q 49 745 40 717 q 71 800 57 774 q 103 848 85 826 q 140 878 121 869 q 170 883 157 885 q 207 886 183 882 q 246 901 235 892 q 269 910 257 910 q 297 898 282 910 q 324 869 311 886 q 344 833 336 853 q 353 799 353 814 q 346 785 353 785 q 324 798 339 785 q 289 811 308 811 m 518 788 q 503 804 503 788 q 535 851 503 831 q 613 871 567 871 q 694 851 658 871 q 729 806 729 831 q 703 785 729 785 q 667 790 682 785 q 642 801 653 794 q 621 812 631 807 q 599 817 611 817 q 556 802 575 817 q 518 788 536 788 z "},"n":{"ha":768,"x_min":147,"x_max":678,"o":"m 261 786 q 245 781 253 786 q 228 771 238 776 q 208 760 218 765 q 183 756 197 756 q 147 793 147 756 q 157 831 147 813 q 182 866 167 850 q 216 892 197 882 q 254 901 235 901 q 297 891 275 901 q 345 869 319 881 q 400 847 371 857 q 464 836 429 836 q 504 840 489 836 q 536 844 519 844 q 587 831 561 844 q 633 794 613 817 q 665 744 653 772 q 678 689 678 717 q 663 657 678 657 q 638 670 653 657 q 594 683 624 683 q 553 695 569 683 q 524 722 538 707 q 494 747 510 736 q 454 758 478 758 q 414 747 432 758 q 381 723 396 736 q 353 699 365 710 q 328 688 340 688 q 306 703 313 688 q 294 737 299 718 q 282 771 289 756 q 261 786 275 786 z "},"o":{"ha":681,"x_min":78,"x_max":557,"o":"m 257 667 q 241 676 247 667 q 228 699 235 686 q 210 721 221 711 q 183 731 200 731 q 157 724 169 731 q 133 710 144 718 q 113 695 122 701 q 94 689 103 689 q 78 715 78 689 q 84 753 78 732 q 99 794 90 774 q 120 833 108 815 q 143 860 132 851 q 196 872 165 876 q 263 871 226 868 q 322 885 299 874 q 379 896 346 896 q 444 883 413 896 q 501 848 476 869 q 542 799 526 826 q 557 746 557 772 q 549 724 557 731 q 522 718 542 718 q 460 731 488 718 q 413 759 433 743 q 376 788 392 775 q 349 800 361 800 q 322 779 333 800 q 301 733 311 758 q 281 688 290 708 q 257 667 271 667 m 281 454 q 272 443 272 454 q 276 431 272 436 q 286 419 281 425 q 297 406 292 414 q 304 388 303 399 q 324 365 308 365 q 333 372 331 365 q 338 385 336 378 q 342 398 339 392 q 350 406 344 404 q 363 428 363 408 q 360 444 363 436 q 354 453 357 453 q 347 440 351 453 q 331 426 342 426 q 306 440 319 426 q 281 454 292 454 z "},"p":{"ha":718,"x_min":88,"x_max":639,"o":"m 246 657 q 232 670 236 657 q 225 700 228 683 q 218 730 222 717 q 203 743 214 743 q 173 724 190 743 q 139 683 156 706 q 108 642 122 661 q 90 624 94 624 q 88 639 88 624 q 103 729 88 686 q 144 805 118 772 q 205 857 171 838 q 276 876 239 876 q 299 874 289 876 q 322 870 310 872 q 351 866 335 868 q 392 864 368 864 q 453 867 428 864 q 496 869 479 869 q 551 858 525 869 q 597 825 578 846 q 628 777 617 804 q 639 719 639 750 q 633 701 639 701 q 618 713 628 701 q 589 724 608 724 q 561 713 572 724 q 542 688 550 701 q 525 664 533 675 q 506 653 517 653 q 476 676 489 653 q 451 727 464 699 q 422 778 438 756 q 386 801 407 801 q 345 779 365 801 q 307 730 325 757 q 274 680 289 703 q 246 657 258 657 m 401 181 q 389 192 394 181 q 381 215 383 203 q 379 239 379 228 q 382 250 379 250 q 393 244 385 250 q 415 238 401 238 q 440 246 429 238 q 458 264 450 254 q 470 282 465 274 q 479 290 475 290 q 485 281 483 290 q 488 260 488 272 q 485 236 488 247 q 478 221 482 225 q 463 219 471 215 q 442 219 454 224 q 428 210 433 217 q 418 197 422 203 q 410 185 414 190 q 401 181 406 181 z "},"q":{"ha":726,"x_min":119,"x_max":658,"o":"m 339 919 q 395 912 368 919 q 448 892 422 904 q 499 867 474 881 q 551 840 525 853 q 585 823 567 833 q 622 788 603 813 q 648 746 638 768 q 658 710 658 724 q 657 701 658 706 q 653 697 656 697 q 631 711 647 697 q 594 741 615 725 q 550 771 574 757 q 503 785 526 785 q 474 776 485 785 q 453 758 463 768 q 434 740 443 749 q 410 732 425 732 q 381 744 393 732 q 358 770 368 756 q 338 797 347 785 q 315 808 328 808 q 296 792 301 808 q 278 758 290 776 q 240 723 265 739 q 164 707 215 707 q 128 712 136 707 q 119 726 119 717 q 133 772 119 740 q 175 837 147 804 q 244 894 203 869 q 339 919 285 919 m 390 225 q 387 203 390 211 q 378 190 383 194 q 367 183 374 186 q 356 178 361 181 q 346 169 349 174 q 342 160 343 164 q 338 154 340 157 q 331 151 336 151 q 317 158 321 151 q 310 172 314 164 q 303 190 307 181 q 290 207 300 200 q 274 227 281 214 q 268 251 268 240 q 281 271 268 271 q 292 264 288 271 q 303 249 297 257 q 319 235 310 242 q 343 228 328 228 q 361 233 356 228 q 369 242 367 238 q 374 252 372 247 q 379 257 375 257 q 388 247 386 257 q 390 225 390 236 z "},"r":{"ha":543,"x_min":65,"x_max":518,"o":"m 471 782 q 453 776 460 782 q 441 763 447 769 q 428 749 435 756 q 408 743 421 743 q 383 749 396 743 q 357 763 369 756 q 331 777 344 771 q 304 783 318 783 q 278 774 288 783 q 260 752 268 764 q 243 731 251 740 q 221 721 235 721 q 203 727 210 721 q 193 740 197 733 q 185 753 189 747 q 174 760 181 760 q 162 745 164 760 q 159 714 160 731 q 155 683 158 697 q 138 668 151 668 q 122 680 125 668 q 117 706 119 692 q 108 731 115 719 q 76 743 100 743 q 65 751 65 743 q 76 777 65 764 q 118 817 88 790 q 162 855 146 840 q 189 878 178 869 q 209 890 200 886 q 232 893 218 893 q 270 889 250 893 q 309 881 290 885 q 345 872 328 876 q 375 868 363 868 q 422 856 397 868 q 469 827 447 844 q 504 790 490 810 q 518 754 518 771 q 515 751 518 747 q 506 761 513 754 q 492 775 500 768 q 471 782 483 782 z "},"s":{"ha":615,"x_min":11,"x_max":592,"o":"m 143 325 q 160 335 150 331 q 182 340 171 339 q 201 338 193 342 q 208 325 208 335 q 201 302 208 315 q 186 289 193 289 q 169 293 182 289 q 147 294 157 297 q 125 272 133 292 q 89 224 117 251 q 25 189 54 189 q 13 193 14 189 q 11 203 11 197 q 24 242 11 222 q 65 275 38 261 q 85 286 74 279 q 108 301 97 293 q 129 315 119 308 q 143 325 139 322 m 490 414 q 458 421 478 414 q 422 437 439 428 q 396 456 406 446 q 392 474 386 467 q 404 479 396 479 q 424 476 413 479 q 451 469 436 474 q 481 463 465 465 q 505 460 496 460 q 520 463 514 461 q 531 465 526 464 q 540 467 535 467 q 567 452 556 467 q 584 420 578 438 q 591 388 590 403 q 586 371 592 374 q 569 371 582 368 q 549 382 557 374 q 535 406 538 393 q 521 421 532 419 q 508 418 514 422 q 490 414 501 414 m 304 718 q 274 731 286 718 q 249 758 261 743 q 224 784 238 772 q 190 796 210 796 q 149 783 169 796 q 109 755 128 771 q 75 726 90 739 q 50 714 60 714 q 44 724 44 714 q 56 763 44 739 q 86 808 67 786 q 133 844 106 829 q 193 860 160 860 q 215 858 204 860 q 239 855 226 857 q 268 852 251 853 q 308 853 285 851 q 361 860 346 856 q 396 864 376 864 q 445 856 421 864 q 488 834 469 847 q 519 804 507 821 q 531 772 531 788 q 527 762 531 764 q 519 760 524 760 q 497 764 508 760 q 472 768 486 768 q 451 774 460 768 q 435 785 442 779 q 420 795 428 790 q 403 800 413 800 q 376 788 386 800 q 356 759 365 775 q 334 731 346 743 q 304 718 322 718 z "},"t":{"ha":542,"x_min":121,"x_max":546,"o":"m 332 924 q 317 932 326 924 q 297 940 308 940 q 279 926 285 940 q 270 894 274 911 q 263 862 267 876 q 250 847 258 847 q 237 862 242 847 q 228 894 232 876 q 217 927 224 913 q 196 942 210 942 q 176 936 188 942 q 155 924 165 931 q 136 913 144 918 q 124 907 128 907 q 121 913 121 907 q 129 936 121 921 q 151 967 138 951 q 178 994 164 983 q 206 1006 193 1006 q 222 1003 213 1006 q 250 1003 231 1000 q 283 1013 275 1006 q 301 1019 292 1019 q 318 1010 311 1019 q 329 987 325 1000 q 335 960 333 974 q 336 938 336 946 q 335 928 336 933 q 332 924 335 924 m 408 818 q 432 825 408 825 q 494 806 469 825 q 518 758 518 788 q 511 738 518 742 q 497 733 504 733 q 460 745 476 733 q 433 772 444 757 q 415 800 421 786 q 408 818 408 814 m 446 383 q 481 376 463 383 q 513 358 499 369 q 537 333 528 347 q 546 306 546 319 q 536 274 546 290 q 515 257 526 257 q 504 267 507 257 q 498 290 501 276 q 488 319 494 304 q 467 344 482 335 q 447 358 460 350 q 433 376 433 367 q 446 383 433 383 z "},"u":{"ha":725,"x_min":64,"x_max":658,"o":"m 64 717 q 74 763 64 740 q 100 803 85 785 q 135 833 115 822 q 174 844 156 844 q 214 834 192 844 q 256 808 236 824 q 290 774 276 792 q 303 744 303 757 q 297 739 303 739 q 281 744 289 739 q 268 756 274 750 q 258 767 263 763 q 250 772 253 772 q 244 764 246 772 q 239 746 242 756 q 232 728 236 736 q 221 719 228 719 q 210 724 215 719 q 199 735 204 729 q 186 747 193 742 q 169 751 179 751 q 142 743 157 751 q 115 724 128 735 q 90 706 101 714 q 72 697 79 697 q 64 717 64 697 m 522 822 q 500 813 513 822 q 476 792 488 803 q 454 771 464 781 q 438 761 444 761 q 429 776 429 761 q 458 831 429 808 q 525 854 486 854 q 571 847 547 854 q 614 827 594 839 q 646 801 633 815 q 658 772 658 786 q 626 746 658 746 q 592 758 607 746 q 566 784 578 769 q 544 810 554 799 q 522 822 533 822 m 363 554 q 382 542 374 554 q 390 515 390 531 q 385 493 390 501 q 378 482 381 485 q 369 458 368 468 q 364 447 371 447 q 349 465 354 447 q 343 511 343 483 q 363 554 343 554 z "},"v":{"ha":754,"x_min":79,"x_max":735,"o":"m 428 479 q 415 446 415 461 q 399 431 414 431 q 376 442 386 431 q 365 474 365 454 q 369 501 365 485 q 376 517 374 517 q 383 512 379 517 q 392 502 388 507 q 402 492 397 497 q 410 488 407 488 q 417 494 414 488 q 422 508 419 500 q 426 523 424 517 q 432 529 428 529 q 438 522 435 529 q 440 507 440 515 q 436 491 440 496 q 428 479 432 486 m 83 793 q 79 809 79 797 q 86 835 79 821 q 108 859 93 849 q 146 869 122 869 q 192 860 168 869 q 235 837 215 851 q 269 804 256 822 q 282 769 282 786 q 276 760 282 760 q 257 768 271 760 q 231 776 243 776 q 215 768 221 776 q 206 751 210 760 q 199 733 203 742 q 186 725 194 725 q 174 737 176 725 q 170 762 172 749 q 163 787 168 775 q 140 799 157 799 q 108 793 125 799 q 83 793 90 788 m 681 751 q 665 746 671 751 q 653 733 658 740 q 642 719 647 725 q 628 714 636 714 q 611 724 618 714 q 598 745 604 733 q 585 767 592 757 q 567 776 578 776 q 539 760 553 776 q 513 722 525 743 q 489 685 500 701 q 471 668 478 668 q 464 682 464 668 q 479 740 464 704 q 514 796 494 775 q 576 838 536 819 q 646 856 615 856 q 710 826 686 856 q 735 751 735 796 q 726 724 735 724 q 708 738 719 724 q 681 751 697 751 z "},"w":{"ha":804,"x_min":46,"x_max":767,"o":"m 533 767 q 525 782 525 767 q 546 840 525 813 q 590 868 567 868 q 610 863 601 868 q 629 851 619 857 q 650 839 639 844 q 675 833 661 833 q 690 837 686 833 q 704 840 694 840 q 739 818 725 840 q 759 769 753 796 q 766 719 765 742 q 763 697 767 697 q 755 706 760 697 q 743 727 750 715 q 728 748 736 739 q 711 757 719 757 q 700 752 704 757 q 693 742 696 747 q 687 731 690 736 q 679 726 683 726 q 665 738 672 726 q 649 762 657 749 q 630 786 640 775 q 604 797 619 797 q 584 792 594 797 q 565 782 574 788 q 547 772 556 776 q 533 767 539 767 m 167 710 q 156 717 161 710 q 145 732 151 724 q 131 747 139 740 q 113 754 124 754 q 90 746 100 754 q 73 727 81 738 q 60 708 65 717 q 50 699 54 699 q 46 713 46 699 q 53 753 46 732 q 72 790 60 774 q 97 817 83 807 q 125 828 111 828 q 159 840 143 828 q 203 851 175 851 q 253 833 235 851 q 279 791 271 814 q 288 749 288 768 q 285 729 289 729 q 279 737 282 729 q 272 753 276 744 q 259 770 267 763 q 239 778 251 778 q 214 767 225 778 q 194 744 203 757 q 180 720 186 731 q 167 710 174 710 m 385 672 q 365 664 374 671 q 351 667 356 657 q 352 688 349 675 q 364 714 356 701 q 385 735 372 726 q 415 744 399 744 q 448 733 435 744 q 467 705 461 721 q 474 674 474 689 q 468 653 475 660 q 457 649 463 647 q 446 653 451 651 q 435 660 439 656 q 429 672 432 665 q 424 683 426 678 q 415 689 421 688 q 401 682 407 690 q 385 672 396 674 z "},"x":{"ha":764,"x_min":43,"x_max":728,"o":"m 151 746 q 135 754 142 746 q 124 772 129 763 q 111 789 118 781 q 93 797 104 797 q 78 792 85 797 q 68 780 72 786 q 60 768 64 774 q 53 763 57 763 q 46 771 49 763 q 43 790 43 779 q 49 822 43 807 q 67 842 56 836 q 85 845 75 846 q 107 849 96 844 q 122 859 117 853 q 133 872 128 865 q 147 883 139 878 q 171 888 156 888 q 199 882 188 888 q 219 869 210 876 q 240 853 229 861 q 265 839 250 844 q 296 822 285 833 q 312 800 307 811 q 317 780 317 789 q 313 768 317 771 q 295 768 308 765 q 267 775 282 771 q 235 783 251 779 q 211 786 219 786 q 192 780 200 786 q 178 766 185 774 q 166 752 172 758 q 151 746 160 746 m 472 708 q 461 715 461 708 q 469 731 461 722 q 482 763 476 740 q 522 824 492 800 q 588 849 551 849 q 634 840 610 849 q 679 819 658 832 q 714 792 700 807 q 728 765 728 778 q 725 758 728 758 q 699 769 717 758 q 650 781 681 781 q 619 775 631 781 q 601 763 608 769 q 588 750 593 756 q 574 744 582 744 q 558 749 564 744 q 542 754 553 754 q 522 747 531 754 q 506 731 514 740 q 491 715 499 722 q 472 708 483 708 m 169 411 q 165 419 169 419 q 151 413 158 419 q 134 399 143 407 q 114 384 125 390 q 89 378 103 378 q 61 358 65 378 q 75 336 57 336 q 91 343 83 336 q 107 359 99 350 q 124 375 115 368 q 146 382 133 382 q 169 411 169 382 z "},"y":{"ha":750,"x_min":13,"x_max":665,"o":"m 553 885 q 631 858 597 885 q 665 785 665 831 q 663 774 665 776 q 656 773 660 771 q 645 779 651 775 q 631 787 639 783 q 615 790 624 790 q 599 783 604 790 q 590 767 593 776 q 584 751 588 758 q 574 744 581 744 q 558 753 565 744 q 542 772 550 761 q 523 790 533 782 q 497 800 513 799 q 476 800 488 801 q 460 803 465 799 q 468 835 451 808 q 506 873 486 861 q 553 885 525 885 m 40 683 q 13 704 13 683 q 32 748 13 725 q 79 790 51 771 q 140 822 107 810 q 200 835 174 835 q 251 819 229 835 q 286 785 272 804 q 306 745 300 765 q 311 714 311 725 q 294 699 311 699 q 260 707 278 699 q 224 726 242 715 q 190 744 206 736 q 161 753 174 753 q 135 742 147 753 q 109 718 122 731 q 80 694 96 706 q 40 683 64 683 m 396 460 q 418 449 418 460 q 413 435 418 443 q 406 425 408 428 q 403 417 403 424 q 401 406 403 411 q 398 395 400 400 q 389 390 396 390 q 369 406 375 390 q 364 432 364 422 q 371 451 364 443 q 396 460 378 460 z "},"z":{"ha":611,"x_min":43,"x_max":590,"o":"m 74 344 q 43 376 43 344 q 92 422 43 415 q 116 429 103 425 q 144 443 129 433 q 179 465 163 454 q 214 476 196 476 q 224 468 224 476 q 216 442 224 457 q 197 413 208 426 q 174 390 186 400 q 151 381 161 381 q 140 384 144 381 q 128 388 135 388 q 115 381 119 388 q 107 366 111 374 q 96 351 103 358 q 74 344 89 344 m 479 315 q 504 342 479 342 q 533 334 518 342 q 561 314 549 326 q 582 287 574 301 q 590 260 590 272 q 589 258 590 258 q 581 269 586 258 q 564 279 575 279 q 549 269 553 279 q 539 258 544 258 q 532 265 535 258 q 526 278 529 271 q 519 292 524 286 q 508 299 515 299 q 499 294 501 299 q 492 290 497 290 q 479 315 479 290 m 118 774 q 89 796 89 774 q 99 825 89 810 q 124 853 108 840 q 159 876 139 867 q 200 885 179 885 q 239 878 218 885 q 282 865 260 872 q 326 853 304 858 q 369 847 349 847 q 404 855 396 847 q 419 863 413 863 q 447 850 428 863 q 484 822 465 838 q 517 792 503 807 q 531 774 532 778 q 523 774 531 771 q 506 783 515 778 q 485 792 496 788 q 467 796 475 796 q 447 782 453 796 q 437 751 440 768 q 429 719 433 733 q 414 706 425 706 q 393 724 403 706 q 374 765 383 743 q 355 805 365 786 q 332 824 344 824 q 322 819 326 824 q 313 809 317 814 q 303 799 308 804 q 290 794 299 794 q 268 806 276 794 q 243 818 260 818 q 217 811 231 818 q 187 796 203 804 q 153 781 171 788 q 118 774 136 774 z "}}}
